# xmcd
#
# Track frame offsets:
#	150
#	16175
#	32345
#	51010
#	70510
#	93397
#	112502
#	125217
#	147565
#	162107
#	181742
#	198665
#	215870
#	232615
#	246742
#	266245
#
# Disc length: 3739 seconds
#
# Revision: 8
# Processed by: cddbd v1.5.2PL0 Copyright (c) Steve Scherf et al.
# Submitted via: EZCDAudioConverter 3.1.5.1
#
DISCID=de0e9910
DTITLE=Pino Daniele - The best of Pino Daniele Yes I know my way
DYEAR=1998
DGENRE=Blues
TTITLE0=Quando
TTITLE1=Io per lei
TTITLE2=Che male c'è
TTITLE3=Amore senza fine
TTITLE4=Senza peccato
TTITLE5=Dubbi non ho
TTITLE6=Resta resta cu'mme
TTITLE7=Anna verrà
TTITLE8=Che soddisfazione
TTITLE9=Quanno chiove
TTITLE10=Napule è
TTITLE11=A testa in giù
TTITLE12=Je sò pazzo
TTITLE13=A me me piace 'o blues
TTITLE14=Che dio ti benedica
TTITLE15=Per te
EXTD=
EXTT0=
EXTT1=
EXTT2=
EXTT3=
EXTT4=
EXTT5=
EXTT6=
EXTT7=
EXTT8=
EXTT9=
EXTT10=
EXTT11=
EXTT12=
EXTT13=
EXTT14=
EXTT15=
PLAYORDER=
